# This file uses centimeters as units for non-parametric coordinates.

mtllib SideWalkNEW.mtl
g default
v 0.000001 -0.000000 31.196487
v 92.419029 -0.000000 31.196487
v 0.000001 2.162257 31.196487
v 92.419029 2.162257 31.196487
v 0.000001 2.162257 0.000000
v 92.419029 2.162257 0.000000
v 0.000001 -0.000000 0.000000
v 92.419029 -0.000000 0.000000
v 0.000001 2.162257 3.119652
v 92.419029 2.162257 3.119652
v 92.419029 -0.000000 3.119652
v 0.000001 -0.000000 3.119652
v 0.000001 3.120935 3.119652
v 92.419029 3.120935 3.119652
v 92.419029 3.120935 0.000000
v 0.000001 3.120935 0.000000
v 46.209515 -0.000000 31.196487
v 46.209515 -0.000000 0.000000
v 46.209515 2.162257 0.000000
v 46.209515 3.120935 0.000000
v 46.209515 3.120935 3.119652
v 46.209515 2.162257 3.119652
v 46.209515 2.162257 31.196487
v 23.104757 -0.000000 31.196487
v 23.104757 -0.000000 0.000000
v 23.104757 2.162257 0.000000
v 23.104757 3.120935 0.000000
v 23.104757 3.120935 3.119652
v 23.104757 2.162257 3.119652
v 23.104757 2.162257 31.196487
v 69.314270 -0.000000 31.196487
v 69.314270 2.162257 31.196487
v 69.314270 2.162257 3.119652
v 69.314270 3.120935 3.119652
v 69.314270 3.120935 0.000000
v 69.314270 2.162257 0.000000
v 69.314270 -0.000000 0.000000
v 69.752769 -0.000000 31.196487
v 69.752769 2.162257 31.196487
v 69.752769 2.162257 3.119652
v 69.752769 3.120935 3.119652
v 69.752769 3.120935 0.000000
v 69.752769 2.162257 0.000000
v 69.752769 -0.000000 0.000000
v 45.953999 -0.000000 31.196487
v 45.953999 2.162257 31.196487
v 45.953999 2.162257 3.119652
v 45.953999 3.120935 3.119652
v 45.953999 3.120935 0.000000
v 45.953999 2.162257 0.000000
v 45.953999 -0.000000 0.000000
v 22.792913 -0.000000 31.196487
v 22.792913 -0.000000 0.000000
v 22.792913 2.162257 0.000000
v 22.792913 3.120935 0.000000
v 22.792913 3.120935 3.119652
v 22.792913 2.162257 3.119652
v 22.792913 2.162257 31.196487
v 22.792913 0.187991 0.246897
v 22.792913 2.089759 0.246897
v 23.104757 2.089759 0.246897
v 23.104757 0.187991 0.246897
v 23.104757 2.932945 0.246897
v 22.792913 2.932945 0.246897
v 22.792913 2.932945 2.872755
v 23.104757 2.932945 2.872755
v 22.792913 2.089759 2.872755
v 23.104757 2.089759 2.872755
v 69.314270 2.089759 2.872755
v 69.314270 2.932945 2.872755
v 69.752769 2.089759 2.872755
v 69.752769 2.932945 2.872755
v 69.314270 2.932945 0.246897
v 69.752769 2.932945 0.246897
v 69.752769 2.089759 0.246897
v 69.314270 2.089759 0.246897
v 69.314270 0.187991 0.246897
v 69.752769 0.187991 0.246897
v 45.953999 2.089759 2.872755
v 45.953999 2.932945 2.872755
v 46.209515 2.089759 2.872755
v 46.209515 2.932945 2.872755
v 45.953999 2.932945 0.246897
v 46.209515 2.932945 0.246897
v 46.209515 2.089759 0.246897
v 45.953999 2.089759 0.246897
v 45.953999 0.187991 0.246897
v 46.209515 0.187991 0.246897
vt 0.375000 0.000000
vt 0.625000 0.000000
vt 0.375000 0.250000
vt 0.625000 0.250000
vt 0.375000 0.500000
vt 0.625000 0.500000
vt 0.375000 0.750000
vt 0.625000 0.750000
vt 0.875000 0.000000
vt 0.875000 0.250000
vt 0.125000 0.000000
vt 0.125000 0.250000
vt 0.150000 0.250000
vt 0.375000 0.475000
vt 0.625000 0.475000
vt 0.850000 0.250000
vt 0.850000 0.000000
vt 0.150000 0.000000
vt 0.375000 0.475000
vt 0.625000 0.475000
vt 0.625000 0.500000
vt 0.375000 0.500000
vt 0.500000 0.000000
vt 0.500000 0.750000
vt 0.500000 0.500000
vt 0.500000 0.500000
vt 0.500000 0.475000
vt 0.500000 0.475000
vt 0.500000 0.250000
vt 0.437500 0.000000
vt 0.437500 0.750000
vt 0.437500 0.500000
vt 0.437500 0.500000
vt 0.437500 0.475000
vt 0.437500 0.475000
vt 0.437500 0.250000
vt 0.562500 0.000000
vt 0.562500 0.250000
vt 0.562500 0.475000
vt 0.562500 0.475000
vt 0.562500 0.500000
vt 0.562500 0.500000
vt 0.562500 0.750000
vt 0.563686 0.000000
vt 0.563686 0.250000
vt 0.563686 0.475000
vt 0.563686 0.475000
vt 0.563686 0.500000
vt 0.563686 0.500000
vt 0.563686 0.750000
vt 0.499309 0.000000
vt 0.499309 0.250000
vt 0.499309 0.475000
vt 0.499309 0.475000
vt 0.499309 0.500000
vt 0.499309 0.500000
vt 0.499309 0.750000
vt 0.436656 0.000000
vt 0.436656 0.750000
vt 0.436656 0.500000
vt 0.436656 0.500000
vt 0.436656 0.475000
vt 0.436656 0.475000
vt 0.436656 0.250000
vt 0.436656 0.750000
vt 0.436656 0.500000
vt 0.437500 0.500000
vt 0.437500 0.750000
vt 0.437500 0.500000
vt 0.436656 0.500000
vt 0.436656 0.475000
vt 0.437500 0.475000
vt 0.436656 0.475000
vt 0.437500 0.475000
vt 0.562500 0.475000
vt 0.562500 0.475000
vt 0.563686 0.475000
vt 0.563686 0.475000
vt 0.562500 0.500000
vt 0.563686 0.500000
vt 0.563686 0.500000
vt 0.562500 0.500000
vt 0.562500 0.750000
vt 0.563686 0.750000
vt 0.499309 0.475000
vt 0.499309 0.475000
vt 0.500000 0.475000
vt 0.500000 0.475000
vt 0.499309 0.500000
vt 0.500000 0.500000
vt 0.500000 0.500000
vt 0.499309 0.500000
vt 0.499309 0.750000
vt 0.500000 0.750000
vn 0.000000 0.000000 1.000000
vn 0.000000 0.000000 1.000000
vn 0.000000 0.000000 1.000000
vn 0.000000 0.000000 1.000000
vn 0.000000 1.000000 0.000000
vn 0.000000 1.000000 0.000000
vn 0.000000 1.000000 0.000000
vn 0.000000 1.000000 0.000000
vn 0.000000 0.000000 -1.000000
vn 0.000000 0.000000 -1.000000
vn 0.000000 0.000000 -1.000000
vn 0.000000 0.000000 -1.000000
vn 1.000000 0.000000 0.000000
vn 1.000000 0.000000 0.000000
vn 1.000000 0.000000 0.000000
vn 1.000000 0.000000 0.000000
vn -1.000000 0.000000 0.000000
vn -1.000000 0.000000 0.000000
vn -1.000000 0.000000 0.000000
vn -1.000000 0.000000 0.000000
vn 0.000000 1.000000 0.000000
vn 0.000000 1.000000 0.000000
vn 0.000000 1.000000 0.000000
vn 0.000000 1.000000 0.000000
vn 1.000000 0.000000 0.000000
vn 1.000000 0.000000 0.000000
vn -1.000000 0.000000 0.000000
vn -1.000000 0.000000 0.000000
vn 0.000000 0.000000 1.000000
vn 0.000000 0.000000 1.000000
vn 0.000000 0.000000 1.000000
vn 0.000000 0.000000 1.000000
vn 1.000000 0.000000 0.000000
vn 1.000000 0.000000 0.000000
vn 1.000000 0.000000 0.000000
vn 1.000000 0.000000 0.000000
vn 0.000000 0.000000 -1.000000
vn 0.000000 0.000000 -1.000000
vn 0.000000 0.000000 -1.000000
vn 0.000000 0.000000 -1.000000
vn -1.000000 0.000000 0.000000
vn -1.000000 0.000000 0.000000
vn -1.000000 0.000000 0.000000
vn -1.000000 0.000000 0.000000
vn 0.000000 0.000000 -1.000000
vn 0.000000 0.000000 -1.000000
vn 0.000000 0.000000 -1.000000
vn 0.000000 0.000000 -1.000000
vn 0.000000 0.000000 -1.000000
vn 0.000000 0.000000 -1.000000
vn 0.000000 0.000000 -1.000000
vn 0.000000 0.000000 -1.000000
vn 0.000000 1.000000 0.000000
vn 0.000000 1.000000 0.000000
vn 0.000000 1.000000 0.000000
vn 0.000000 1.000000 0.000000
vn 0.000000 0.000000 1.000000
vn 0.000000 0.000000 1.000000
vn 0.000000 0.000000 1.000000
vn 0.000000 0.000000 1.000000
vn 0.000000 1.000000 0.000000
vn 0.000000 1.000000 0.000000
vn 0.000000 1.000000 0.000000
vn 0.000000 1.000000 0.000000
vn 0.000000 0.000000 1.000000
vn 0.000000 0.000000 1.000000
vn 0.000000 0.000000 1.000000
vn 0.000000 0.000000 1.000000
vn 0.000000 0.000000 -1.000000
vn 0.000000 0.000000 -1.000000
vn 0.000000 0.000000 -1.000000
vn 0.000000 0.000000 -1.000000
vn 0.000000 0.000000 -1.000000
vn 0.000000 0.000000 -1.000000
vn 0.000000 0.000000 -1.000000
vn 0.000000 0.000000 -1.000000
vn 0.000000 1.000000 0.000000
vn 0.000000 1.000000 0.000000
vn 0.000000 1.000000 0.000000
vn 0.000000 1.000000 0.000000
vn 0.000000 0.000000 1.000000
vn 0.000000 0.000000 1.000000
vn 0.000000 0.000000 1.000000
vn 0.000000 0.000000 1.000000
vn 0.000000 1.000000 0.000000
vn 0.000000 1.000000 0.000000
vn 0.000000 0.000000 1.000000
vn 0.000000 0.000000 1.000000
vn 0.000000 0.000000 1.000000
vn 0.000000 0.000000 1.000000
vn 0.000000 1.000000 0.000000
vn 0.000000 1.000000 0.000000
vn 0.000000 0.000000 1.000000
vn 0.000000 0.000000 1.000000
vn 0.000000 0.000000 1.000000
vn 0.000000 0.000000 1.000000
vn 0.000000 1.000000 0.000000
vn 0.000000 1.000000 0.000000
vn 0.000000 1.000000 0.000000
vn 0.000000 1.000000 0.000000
vn 0.000000 0.000000 -1.000000
vn 0.000000 0.000000 -1.000000
vn 0.000000 0.000000 -1.000000
vn 0.000000 0.000000 -1.000000
vn 0.000000 0.000000 -1.000000
vn 0.000000 0.000000 -1.000000
vn 0.000000 0.000000 -1.000000
vn 0.000000 0.000000 -1.000000
vn 0.000000 0.000000 1.000000
vn 0.000000 0.000000 1.000000
vn 0.000000 1.000000 0.000000
vn 0.000000 1.000000 0.000000
vn 0.000000 0.000000 1.000000
vn 0.000000 0.000000 1.000000
vn 0.000000 0.000000 1.000000
vn 0.000000 0.000000 1.000000
vn 0.000000 1.000000 0.000000
vn 0.000000 1.000000 0.000000
vn 0.000000 1.000000 0.000000
vn 0.000000 1.000000 0.000000
vn 0.000000 0.000000 -1.000000
vn 0.000000 0.000000 -1.000000
vn 0.000000 0.000000 -1.000000
vn 0.000000 0.000000 -1.000000
vn 0.000000 0.000000 -1.000000
vn 0.000000 0.000000 -1.000000
vn 0.000000 0.000000 -1.000000
vn 0.000000 0.000000 -1.000000
vn 0.000000 0.000000 1.000000
vn 0.000000 0.000000 1.000000
vn 0.000000 0.000000 1.000000
vn 0.000000 0.000000 1.000000
vn 0.000000 1.000000 0.000000
vn 0.000000 1.000000 0.000000
vn 0.000000 1.000000 0.000000
vn 0.000000 1.000000 0.000000
vn 0.000000 0.000000 -1.000000
vn 0.000000 0.000000 -1.000000
vn 0.000000 0.000000 -1.000000
vn 0.000000 0.000000 -1.000000
vn 0.000000 0.000000 -1.000000
vn 0.000000 0.000000 -1.000000
vn 0.000000 0.000000 -1.000000
vn 0.000000 0.000000 -1.000000
vn 0.000000 0.000000 -1.000000
vn 0.000000 0.000000 -1.000000
vn 0.000000 0.000000 -1.000000
vn 0.000000 0.000000 -1.000000
vn 0.000000 0.000000 -1.000000
vn 0.000000 0.000000 -1.000000
vn 0.000000 0.000000 -1.000000
vn 0.000000 0.000000 -1.000000
vn 0.000000 1.000000 0.000000
vn 0.000000 1.000000 0.000000
vn 0.000000 1.000000 0.000000
vn 0.000000 1.000000 0.000000
vn 0.000000 0.000000 1.000000
vn 0.000000 0.000000 1.000000
vn 0.000000 0.000000 1.000000
vn 0.000000 0.000000 1.000000
vn 0.000000 1.000000 0.000000
vn 0.000000 1.000000 0.000000
vn 0.000000 0.000000 1.000000
vn 0.000000 0.000000 1.000000
vn 1.000000 0.000000 0.000000
vn 1.000000 0.000000 0.000000
vn 1.000000 0.000000 0.000000
vn 1.000000 0.000000 0.000000
vn -1.000000 0.000000 0.000000
vn -1.000000 0.000000 0.000000
vn -1.000000 0.000000 0.000000
vn -1.000000 0.000000 0.000000
vn 0.000000 0.795619 -0.605798
vn 0.000000 0.795619 -0.605798
vn 0.000000 0.795619 -0.605798
vn 0.000000 0.795619 -0.605798
vn -1.000000 0.000000 0.000000
vn -1.000000 0.000000 0.000000
vn -1.000000 0.000000 0.000000
vn -1.000000 0.000000 0.000000
vn 1.000000 0.000000 0.000000
vn 1.000000 0.000000 0.000000
vn 1.000000 0.000000 0.000000
vn 1.000000 0.000000 0.000000
vn 1.000000 0.000004 0.000000
vn 1.000000 0.000004 0.000000
vn 1.000000 0.000004 0.000000
vn 1.000000 0.000004 0.000000
vn -1.000000 0.000003 0.000000
vn -1.000000 0.000003 0.000000
vn -1.000000 0.000003 0.000000
vn -1.000000 0.000003 0.000000
vn 1.000000 0.000000 0.000000
vn 1.000000 0.000000 0.000000
vn 1.000000 0.000000 0.000000
vn 1.000000 0.000000 0.000000
vn 0.000000 0.959490 -0.281744
vn 0.000000 0.959490 -0.281744
vn 0.000000 0.959490 -0.281744
vn 0.000000 0.959490 -0.281744
vn -1.000000 0.000000 0.000000
vn -1.000000 0.000000 0.000000
vn -1.000000 0.000000 0.000000
vn -1.000000 0.000000 0.000000
vn 1.000000 0.000000 0.000000
vn 1.000000 0.000000 0.000000
vn 1.000000 0.000000 0.000000
vn 1.000000 0.000000 0.000000
vn 0.000000 0.959489 -0.281745
vn 0.000000 0.959489 -0.281745
vn 0.000000 0.959489 -0.281745
vn 0.000000 0.959489 -0.281745
vn -1.000000 0.000000 0.000000
vn -1.000000 0.000000 0.000000
vn -1.000000 0.000000 0.000000
vn -1.000000 0.000000 0.000000
vn 1.000000 -0.000011 0.000000
vn 1.000000 -0.000011 0.000000
vn 1.000000 -0.000011 0.000000
vn 1.000000 -0.000011 0.000000
vn -1.000000 -0.000011 0.000000
vn -1.000000 -0.000011 0.000000
vn -1.000000 -0.000011 0.000000
vn -1.000000 -0.000011 0.000000
vn -1.000000 0.000000 0.000000
vn -1.000000 0.000000 0.000000
vn -1.000000 0.000000 0.000000
vn -1.000000 0.000000 0.000000
vn 1.000000 0.000000 0.000000
vn 1.000000 0.000000 0.000000
vn 1.000000 0.000000 0.000000
vn 1.000000 0.000000 0.000000
vn 1.000000 0.000000 0.000000
vn 1.000000 0.000000 0.000000
vn 1.000000 0.000000 0.000000
vn 1.000000 0.000000 0.000000
vn -1.000000 0.000000 0.000000
vn -1.000000 0.000000 0.000000
vn -1.000000 0.000000 0.000000
vn -1.000000 0.000000 0.000000
vn 0.000000 0.795622 -0.605794
vn 0.000000 0.795622 -0.605794
vn 0.000000 0.795622 -0.605794
vn 0.000000 0.795622 -0.605794
vn 1.000000 0.000000 0.000000
vn 1.000000 0.000000 0.000000
vn 1.000000 0.000000 0.000000
vn 1.000000 0.000000 0.000000
vn 0.000000 0.959489 -0.281745
vn 0.000000 0.959489 -0.281745
vn 0.000000 0.959489 -0.281745
vn 0.000000 0.959489 -0.281745
vn -1.000000 0.000000 0.000000
vn -1.000000 0.000000 0.000000
vn -1.000000 0.000000 0.000000
vn -1.000000 0.000000 0.000000
vn 1.000000 -0.000012 0.000000
vn 1.000000 -0.000012 0.000000
vn 1.000000 -0.000012 0.000000
vn 1.000000 -0.000012 0.000000
vn -1.000000 0.000005 0.000000
vn -1.000000 0.000005 0.000000
vn -1.000000 0.000005 0.000000
vn -1.000000 0.000005 0.000000
vn -1.000000 0.000000 0.000000
vn -1.000000 0.000000 0.000000
vn -1.000000 0.000000 0.000000
vn -1.000000 0.000000 0.000000
vn 1.000000 0.000000 0.000000
vn 1.000000 0.000000 0.000000
vn 1.000000 0.000000 0.000000
vn 1.000000 0.000000 0.000000
vn 1.000000 0.000000 0.000000
vn 1.000000 0.000000 0.000000
vn 1.000000 0.000000 0.000000
vn 1.000000 0.000000 0.000000
vn -1.000000 0.000000 0.000000
vn -1.000000 0.000000 0.000000
vn -1.000000 0.000000 0.000000
vn -1.000000 0.000000 0.000000
vn 0.000000 0.795617 -0.605800
vn 0.000000 0.795617 -0.605800
vn 0.000000 0.795617 -0.605800
vn 0.000000 0.795617 -0.605800
s 1
g SideWalk
usemtl lambert6SG
f 23/29/1 17/23/2 31/37/3 32/38/4
s off
usemtl lambert5SG
f 20/26/5 21/27/6 34/40/7 35/41/8
f 18/24/9 19/25/10 36/42/11 37/43/12
s 2
f 10/16/13 11/17/14 8/9/15 6/10/16
s 3
f 7/11/17 12/18/18 9/13/19 5/12/20
s 4
usemtl lambert6SG
f 22/28/21 23/29/22 32/38/23 33/39/24
s 2
f 2/2/25 11/17/14 10/16/13 4/4/26
s 3
f 9/13/19 12/18/18 1/1/27 3/3/28
s off
usemtl lambert5SG
f 21/27/29 22/28/30 33/39/31 34/40/32
f 10/15/33 6/6/34 15/21/35 14/20/36
f 35/41/37 36/42/38 19/25/39 20/26/40
f 5/5/41 9/14/42 13/19/43 16/22/44
f 25/31/45 26/32/46 50/56/47 51/57/48
f 49/55/49 50/56/50 26/32/51 27/33/52
f 27/33/53 28/34/54 48/54/55 49/55/56
f 28/34/57 29/35/58 47/53/59 48/54/60
s 4
usemtl lambert6SG
f 29/35/61 30/36/62 46/52/63 47/53/64
s 1
f 30/36/65 24/30/66 45/51/67 46/52/68
s off
usemtl lambert5SG
f 59/65/69 60/66/70 61/67/71 62/68/72
f 63/69/73 61/67/74 60/66/75 64/70/76
f 64/70/77 65/71/78 66/72/79 63/69/80
f 65/71/81 67/73/82 68/74/83 66/72/84
s 4
usemtl lambert6SG
f 57/63/85 58/64/86 30/36/62 29/35/61
s 1
f 58/64/87 52/58/88 24/30/66 30/36/65
f 32/38/4 31/37/3 38/44/89 39/45/90
s 4
f 33/39/24 32/38/23 39/45/91 40/46/92
s off
usemtl lambert5SG
f 70/75/93 69/76/94 71/77/95 72/78/96
f 73/79/97 70/75/98 72/78/99 74/80/100
f 74/80/101 75/81/102 76/82/103 73/79/104
f 77/83/105 76/82/106 75/81/107 78/84/108
s 1
usemtl lambert6SG
f 39/45/90 38/44/89 2/2/109 4/4/110
s 4
f 40/46/92 39/45/91 4/4/111 10/15/112
s off
usemtl lambert5SG
f 41/47/113 40/46/114 10/15/115 14/20/116
f 42/48/117 41/47/118 14/20/119 15/21/120
f 6/6/121 43/49/122 42/48/123 15/21/124
f 44/50/125 43/49/126 6/6/127 8/8/128
s 1
usemtl lambert6SG
f 46/52/68 45/51/67 17/23/2 23/29/1
s 4
f 47/53/64 46/52/63 23/29/22 22/28/21
s off
usemtl lambert5SG
f 80/85/129 79/86/130 81/87/131 82/88/132
f 83/89/133 80/85/134 82/88/135 84/90/136
f 84/90/137 85/91/138 86/92/139 83/89/140
f 87/93/141 86/92/142 85/91/143 88/94/144
f 5/5/145 54/60/146 53/59/147 7/7/148
f 55/61/149 54/60/150 5/5/151 16/22/152
f 13/19/153 56/62/154 55/61/155 16/22/156
f 9/14/157 57/63/158 56/62/159 13/19/160
s 4
usemtl lambert6SG
f 3/3/161 58/64/86 57/63/85 9/14/162
s 1
f 1/1/163 52/58/88 58/64/87 3/3/164
s off
usemtl lambert5SG
f 53/59/165 54/60/166 60/66/167 59/65/168
f 26/32/169 25/31/170 62/68/171 61/67/172
f 25/31/173 53/59/174 59/65/175 62/68/176
f 27/33/177 26/32/178 61/67/179 63/69/180
f 54/60/181 55/61/182 64/70/183 60/66/184
f 55/61/185 56/62/186 65/71/187 64/70/188
f 28/34/189 27/33/190 63/69/191 66/72/192
f 56/62/193 57/63/194 67/73/195 65/71/196
f 57/63/197 29/35/198 68/74/199 67/73/200
f 29/35/201 28/34/202 66/72/203 68/74/204
f 34/40/205 33/39/206 69/76/207 70/75/208
f 33/39/209 40/46/210 71/77/211 69/76/212
f 40/46/213 41/47/214 72/78/215 71/77/216
f 35/41/217 34/40/218 70/75/219 73/79/220
f 41/47/221 42/48/222 74/80/223 72/78/224
f 42/48/225 43/49/226 75/81/227 74/80/228
f 36/42/229 35/41/230 73/79/231 76/82/232
f 37/43/233 36/42/234 76/82/235 77/83/236
f 43/49/237 44/50/238 78/84/239 75/81/240
f 44/50/241 37/43/242 77/83/243 78/84/244
f 48/54/245 47/53/246 79/86/247 80/85/248
f 47/53/249 22/28/250 81/87/251 79/86/252
f 22/28/253 21/27/254 82/88/255 81/87/256
f 49/55/257 48/54/258 80/85/259 83/89/260
f 21/27/261 20/26/262 84/90/263 82/88/264
f 20/26/265 19/25/266 85/91/267 84/90/268
f 50/56/269 49/55/270 83/89/271 86/92/272
f 51/57/273 50/56/274 86/92/275 87/93/276
f 19/25/277 18/24/278 88/94/279 85/91/280
f 18/24/281 51/57/282 87/93/283 88/94/284
