# This file uses centimeters as units for non-parametric coordinates.

mtllib Lever.mtl
g default
v -1.742899 3.007233 0.083571
v -2.022389 3.502469 0.056724
v -2.022389 3.502469 -0.117704
v -1.742899 3.007233 -0.144551
v -1.424475 3.168322 0.047939
v -1.515239 3.122405 0.118649
v -1.631183 3.634154 0.029479
v -1.743012 3.607163 0.083546
v -1.743012 3.607163 -0.144526
v -1.631183 3.634154 -0.090459
v -1.424475 3.168322 -0.108919
v -1.515239 3.122405 -0.179629
v -1.970674 3.401305 0.065090
v -1.695659 3.511121 0.094485
v -1.585658 3.543104 0.035231
v -1.585658 3.543104 -0.096212
v -1.695659 3.511121 -0.155465
v -1.970674 3.401305 -0.126070
v -1.929302 3.320374 0.071783
v -1.657777 3.434288 0.103236
v -1.549238 3.470264 0.039833
v -1.549238 3.470264 -0.100814
v -1.657777 3.434288 -0.164216
v -1.929302 3.320374 -0.132763
v -1.896205 3.255630 0.077137
v -1.627471 3.372821 0.110237
v -1.520102 3.411992 0.043515
v -1.520102 3.411992 -0.104495
v -1.627471 3.372821 -0.171217
v -1.896205 3.255630 -0.138118
v -1.856488 3.177936 0.083563
v -1.591103 3.299061 0.118638
v -1.485139 3.342065 0.047933
v -1.485139 3.342065 -0.108913
v -1.591103 3.299061 -0.179619
v -1.856488 3.177936 -0.144543
v -1.819419 3.105423 0.089560
v -1.557161 3.230218 0.126480
v -1.452507 3.276800 0.052057
v -1.452507 3.276800 -0.113037
v -1.557161 3.230218 -0.187460
v -1.819419 3.105423 -0.150540
v -1.902584 3.317094 0.060540
v -1.660908 3.418484 0.088535
v -1.694626 3.486871 0.080746
v -1.939407 3.389128 0.054582
v -1.564302 3.450506 0.032102
v -1.596718 3.515338 0.028006
v -1.596718 3.515338 -0.088987
v -1.564302 3.450506 -0.093083
v -1.694626 3.486871 -0.141726
v -1.660908 3.418484 -0.149515
v -1.939407 3.389128 -0.115563
v -1.902584 3.317094 -0.121520
v -1.837774 3.190315 0.071024
v -1.601565 3.298124 0.102244
v -1.633934 3.363775 0.094766
v -1.873125 3.259467 0.065305
v -1.507249 3.336400 0.039312
v -1.538369 3.398639 0.035379
v -1.538369 3.398639 -0.096360
v -1.507249 3.336400 -0.100292
v -1.633934 3.363775 -0.155747
v -1.601565 3.298124 -0.163224
v -1.873125 3.259467 -0.126286
v -1.837774 3.190315 -0.132005
v -1.755290 3.028960 0.084369
v -1.526036 3.144937 0.119692
v -1.571353 3.236849 0.109223
v -1.804781 3.125773 0.076362
v -1.434637 3.191175 0.048487
v -1.478205 3.278310 0.042982
v -1.478205 3.278310 -0.103962
v -1.434637 3.191175 -0.109468
v -1.571353 3.236849 -0.170204
v -1.526036 3.144937 -0.180672
v -1.804781 3.125773 -0.137342
v -1.755290 3.028960 -0.145349
vt 0.375000 0.200000
vt 0.585847 0.200000
vt 0.585847 0.250000
vt 0.375000 0.250000
vt 0.625000 0.312494
vt 0.625000 0.437506
vt 0.585847 0.500000
vt 0.375000 0.500000
vt 0.585847 0.550000
vt 0.375000 0.550000
vt 0.375000 0.750000
vt 0.585847 0.750000
vt 0.625000 0.812494
vt 0.625000 0.937506
vt 0.585847 1.000000
vt 0.375000 1.000000
vt 0.687494 0.250000
vt 0.687494 0.200000
vt 0.812506 0.200000
vt 0.812506 0.250000
vt 0.125000 0.200000
vt 0.125000 0.250000
vt 0.625000 0.512504
vt 0.375000 0.160000
vt 0.585847 0.160000
vt 0.585847 0.200000
vt 0.375000 0.200000
vt 0.687494 0.160000
vt 0.687494 0.200000
vt 0.812506 0.200000
vt 0.812506 0.160000
vt 0.585847 0.550000
vt 0.625000 0.512504
vt 0.625000 0.572502
vt 0.585847 0.590000
vt 0.375000 0.550000
vt 0.375000 0.590000
vt 0.125000 0.160000
vt 0.125000 0.200000
vt 0.375000 0.128000
vt 0.585847 0.128000
vt 0.585847 0.160000
vt 0.375000 0.160000
vt 0.687494 0.128000
vt 0.687494 0.160000
vt 0.812506 0.160000
vt 0.812506 0.128000
vt 0.585847 0.590000
vt 0.625000 0.572502
vt 0.625000 0.620500
vt 0.585847 0.622000
vt 0.375000 0.590000
vt 0.375000 0.622000
vt 0.125000 0.128000
vt 0.125000 0.160000
vt 0.375000 0.089600
vt 0.585847 0.089600
vt 0.585847 0.128000
vt 0.375000 0.128000
vt 0.687494 0.089600
vt 0.687494 0.128000
vt 0.812506 0.128000
vt 0.812506 0.089600
vt 0.585847 0.622000
vt 0.625000 0.620500
vt 0.625000 0.678098
vt 0.585847 0.660400
vt 0.375000 0.622000
vt 0.375000 0.660400
vt 0.125000 0.089600
vt 0.125000 0.128000
vt 0.375000 0.053760
vt 0.585847 0.053760
vt 0.585847 0.089600
vt 0.375000 0.089600
vt 0.687494 0.053760
vt 0.687494 0.089600
vt 0.812506 0.089600
vt 0.812506 0.053760
vt 0.585847 0.660400
vt 0.625000 0.678098
vt 0.625000 0.731856
vt 0.585847 0.696240
vt 0.375000 0.660400
vt 0.375000 0.696240
vt 0.125000 0.053760
vt 0.125000 0.089600
vt 0.375000 0.000000
vt 0.585847 0.000000
vt 0.585847 0.053760
vt 0.375000 0.053760
vt 0.687494 0.000000
vt 0.687494 0.053760
vt 0.812506 0.053760
vt 0.812506 0.000000
vt 0.585847 0.696240
vt 0.625000 0.731856
vt 0.625000 0.812494
vt 0.585847 0.750000
vt 0.375000 0.696240
vt 0.375000 0.750000
vt 0.125000 0.000000
vt 0.125000 0.053760
vt 0.375000 0.000000
vt 0.585847 0.000000
vt 0.687494 0.000000
vt 0.812506 0.000000
vt 0.125000 0.000000
vn -0.115741 0.039019 0.992513
vn -0.115741 0.039019 0.992513
vn -0.115741 0.039019 0.992513
vn -0.115741 0.039019 0.992513
vn -0.322284 0.946643 -0.000001
vn -0.322284 0.946643 -0.000001
vn -0.322284 0.946643 -0.000001
vn -0.322284 0.946643 -0.000001
vn -0.322284 0.946643 -0.000001
vn -0.322284 0.946643 -0.000001
vn -0.115741 0.039019 -0.992513
vn -0.115741 0.039019 -0.992513
vn -0.115741 0.039019 -0.992513
vn -0.115741 0.039019 -0.992513
vn 0.451415 -0.892314 0.000000
vn 0.451415 -0.892314 0.000000
vn 0.451415 -0.892314 0.000000
vn 0.451415 -0.892314 0.000000
vn 0.451415 -0.892314 0.000000
vn 0.451415 -0.892314 0.000000
vn 0.894429 0.447211 0.000000
vn 0.894429 0.447211 0.000000
vn 0.894429 0.447211 0.000000
vn 0.894428 0.447211 0.000000
vn -0.890403 -0.455173 0.000000
vn -0.890403 -0.455173 0.000000
vn -0.890403 -0.455173 0.000000
vn -0.890403 -0.455173 0.000000
vn 0.380824 0.268006 0.884956
vn 0.380824 0.268006 0.884956
vn 0.380824 0.268006 0.884956
vn 0.380824 0.268006 0.884956
vn 0.380824 0.268006 -0.884956
vn 0.380824 0.268006 -0.884956
vn 0.380824 0.268006 -0.884956
vn 0.380824 0.268006 -0.884956
vn -0.124529 0.034516 0.991615
vn -0.124529 0.034516 0.991615
vn -0.124529 0.034516 0.991615
vn -0.124529 0.034516 0.991615
vn 0.403007 0.277863 0.871996
vn 0.403007 0.277863 0.871996
vn 0.403008 0.277863 0.871996
vn 0.403007 0.277863 0.871996
vn 0.894428 0.447212 0.000000
vn 0.894428 0.447212 0.000000
vn 0.894428 0.447212 0.000000
vn 0.894428 0.447212 0.000000
vn 0.403007 0.277863 -0.871996
vn 0.403007 0.277863 -0.871996
vn 0.403007 0.277863 -0.871996
vn 0.403007 0.277863 -0.871996
vn -0.124529 0.034516 -0.991615
vn -0.124529 0.034516 -0.991615
vn -0.124529 0.034516 -0.991615
vn -0.124529 0.034516 -0.991615
vn -0.890403 -0.455173 0.000000
vn -0.890403 -0.455173 0.000000
vn -0.890403 -0.455173 0.000000
vn -0.890403 -0.455173 0.000000
vn -0.131600 0.030886 0.990822
vn -0.131600 0.030886 0.990822
vn -0.131600 0.030886 0.990822
vn -0.131600 0.030886 0.990822
vn 0.419931 0.285330 0.861536
vn 0.419931 0.285330 0.861536
vn 0.419931 0.285330 0.861536
vn 0.419931 0.285330 0.861536
vn 0.894428 0.447211 -0.000000
vn 0.894428 0.447211 -0.000000
vn 0.894428 0.447211 -0.000000
vn 0.894428 0.447211 -0.000000
vn 0.419932 0.285331 -0.861535
vn 0.419932 0.285331 -0.861535
vn 0.419932 0.285331 -0.861535
vn 0.419932 0.285331 -0.861535
vn -0.131600 0.030886 -0.990822
vn -0.131600 0.030886 -0.990822
vn -0.131600 0.030886 -0.990822
vn -0.131600 0.030886 -0.990822
vn -0.890403 -0.455173 0.000000
vn -0.890403 -0.455173 0.000000
vn -0.890403 -0.455173 0.000000
vn -0.890403 -0.455173 0.000000
vn -0.138548 0.027313 0.989979
vn -0.138548 0.027313 0.989979
vn -0.138548 0.027313 0.989979
vn -0.138548 0.027313 0.989979
vn 0.435790 0.292286 0.851267
vn 0.435790 0.292286 0.851267
vn 0.435790 0.292286 0.851267
vn 0.435790 0.292286 0.851267
vn 0.894428 0.447211 -0.000000
vn 0.894428 0.447211 -0.000000
vn 0.894428 0.447211 -0.000000
vn 0.894428 0.447211 -0.000000
vn 0.435790 0.292287 -0.851267
vn 0.435790 0.292287 -0.851267
vn 0.435790 0.292287 -0.851267
vn 0.435790 0.292287 -0.851267
vn -0.138548 0.027313 -0.989979
vn -0.138548 0.027313 -0.989979
vn -0.138548 0.027313 -0.989979
vn -0.138549 0.027313 -0.989979
vn -0.890403 -0.455173 0.000000
vn -0.890403 -0.455173 0.000000
vn -0.890403 -0.455173 0.000000
vn -0.890403 -0.455173 0.000000
vn -0.145913 0.023520 0.989018
vn -0.145913 0.023520 0.989018
vn -0.145913 0.023520 0.989018
vn -0.145913 0.023520 0.989018
vn 0.451806 0.299270 0.840422
vn 0.451806 0.299270 0.840422
vn 0.451806 0.299270 0.840422
vn 0.451806 0.299270 0.840422
vn 0.894428 0.447211 0.000000
vn 0.894428 0.447211 0.000000
vn 0.894428 0.447211 0.000000
vn 0.894428 0.447211 0.000000
vn 0.451807 0.299270 -0.840421
vn 0.451807 0.299270 -0.840421
vn 0.451807 0.299270 -0.840421
vn 0.451807 0.299270 -0.840422
vn -0.145913 0.023520 -0.989018
vn -0.145913 0.023520 -0.989018
vn -0.145913 0.023520 -0.989018
vn -0.145913 0.023520 -0.989018
vn -0.890403 -0.455173 0.000000
vn -0.890403 -0.455173 0.000000
vn -0.890403 -0.455173 0.000000
vn -0.890403 -0.455173 0.000000
vn -0.154844 0.018909 0.987758
vn -0.154844 0.018909 0.987758
vn -0.154844 0.018909 0.987758
vn -0.154844 0.018909 0.987758
vn 0.470194 0.307233 0.827360
vn 0.470195 0.307233 0.827360
vn 0.470194 0.307233 0.827360
vn 0.470194 0.307233 0.827360
vn 0.894428 0.447211 0.000000
vn 0.894428 0.447211 0.000000
vn 0.894428 0.447211 0.000000
vn 0.894428 0.447211 0.000000
vn 0.470194 0.307233 -0.827360
vn 0.470195 0.307233 -0.827360
vn 0.470194 0.307233 -0.827360
vn 0.470194 0.307233 -0.827360
vn -0.154844 0.018909 -0.987758
vn -0.154844 0.018909 -0.987758
vn -0.154844 0.018909 -0.987758
vn -0.154844 0.018909 -0.987758
vn -0.890403 -0.455173 0.000000
vn -0.890403 -0.455173 0.000000
vn -0.890403 -0.455173 0.000000
vn -0.890403 -0.455173 0.000000
vn -0.208098 0.687994 -0.695241
vn -0.208098 0.687994 -0.695241
vn -0.208098 0.687994 -0.695241
vn -0.208099 0.687994 -0.695241
vn 0.101792 -0.487098 0.867395
vn 0.101792 -0.487098 0.867395
vn 0.101792 -0.487098 0.867395
vn 0.101792 -0.487098 0.867395
vn -0.536874 0.629220 -0.562003
vn -0.536874 0.629220 -0.562003
vn -0.536874 0.629220 -0.562003
vn -0.536874 0.629220 -0.562003
vn 0.522074 -0.403484 0.751425
vn 0.522074 -0.403484 0.751425
vn 0.522074 -0.403484 0.751425
vn 0.522074 -0.403484 0.751425
vn 0.929012 -0.370048 0.000000
vn 0.929012 -0.370048 0.000000
vn 0.929012 -0.370048 0.000000
vn 0.929012 -0.370048 0.000000
vn -0.795245 0.606288 0.000000
vn -0.795245 0.606288 0.000000
vn -0.795245 0.606288 0.000000
vn -0.795245 0.606288 0.000000
vn 0.522073 -0.403483 -0.751426
vn 0.522073 -0.403483 -0.751426
vn 0.522073 -0.403483 -0.751426
vn 0.522073 -0.403483 -0.751426
vn -0.536871 0.629217 0.562010
vn -0.536871 0.629217 0.562010
vn -0.536871 0.629217 0.562010
vn -0.536871 0.629217 0.562010
vn 0.101792 -0.487099 -0.867395
vn 0.101792 -0.487099 -0.867395
vn 0.101792 -0.487098 -0.867395
vn 0.101792 -0.487099 -0.867395
vn -0.208099 0.687996 0.695238
vn -0.208099 0.687996 0.695238
vn -0.208099 0.687996 0.695238
vn -0.208099 0.687996 0.695238
vn 0.121857 0.992548 0.000000
vn 0.121857 0.992548 0.000000
vn 0.121857 0.992548 0.000000
vn 0.121857 0.992548 0.000000
vn -0.362911 -0.931824 0.000000
vn -0.362911 -0.931824 0.000000
vn -0.362911 -0.931824 0.000000
vn -0.362911 -0.931824 0.000000
vn -0.429000 0.875158 0.223734
vn -0.429000 0.875158 0.223734
vn -0.429000 0.875158 0.223734
vn -0.429000 0.875158 0.223734
vn 0.333139 -0.867962 0.368321
vn 0.333139 -0.867962 0.368321
vn 0.333139 -0.867962 0.368321
vn 0.333139 -0.867962 0.368321
vn -0.294637 0.946183 0.133890
vn -0.294637 0.946183 0.133890
vn -0.294637 0.946183 0.133890
vn -0.294637 0.946183 0.133890
vn 0.479755 -0.829882 0.284835
vn 0.479755 -0.829882 0.284835
vn 0.479755 -0.829882 0.284835
vn 0.479755 -0.829882 0.284835
vn 0.590123 -0.807314 0.000002
vn 0.590123 -0.807314 0.000002
vn 0.590123 -0.807314 0.000002
vn 0.590123 -0.807314 0.000002
vn -0.248185 0.968713 0.000000
vn -0.248185 0.968713 0.000000
vn -0.248185 0.968713 0.000000
vn -0.248185 0.968713 0.000000
vn 0.479755 -0.829882 -0.284836
vn 0.479755 -0.829882 -0.284836
vn 0.479755 -0.829882 -0.284836
vn 0.479755 -0.829882 -0.284836
vn -0.294637 0.946184 -0.133886
vn -0.294637 0.946184 -0.133886
vn -0.294637 0.946184 -0.133886
vn -0.294637 0.946184 -0.133886
vn 0.333140 -0.867966 -0.368310
vn 0.333140 -0.867966 -0.368310
vn 0.333140 -0.867966 -0.368310
vn 0.333140 -0.867966 -0.368310
vn -0.429000 0.875159 -0.223732
vn -0.429000 0.875159 -0.223732
vn -0.429000 0.875159 -0.223732
vn -0.429000 0.875159 -0.223732
vn -0.551700 0.834042 0.000000
vn -0.551700 0.834042 0.000000
vn -0.551700 0.834042 0.000000
vn -0.551700 0.834042 0.000000
vn 0.164009 -0.986459 0.000000
vn 0.164009 -0.986459 0.000000
vn 0.164009 -0.986459 0.000000
vn 0.164009 -0.986459 0.000000
vn -0.104104 -0.095727 0.989949
vn -0.104104 -0.095727 0.989949
vn -0.104104 -0.095727 0.989949
vn -0.104104 -0.095727 0.989949
vn 0.410784 -0.685398 -0.601238
vn 0.410784 -0.685398 -0.601238
vn 0.410784 -0.685398 -0.601238
vn 0.410784 -0.685398 -0.601238
vn 0.529777 0.215889 0.820201
vn 0.529777 0.215889 0.820201
vn 0.529777 0.215889 0.820201
vn 0.529777 0.215889 0.820201
vn 0.097535 -0.899520 -0.425854
vn 0.097535 -0.899520 -0.425854
vn 0.097535 -0.899520 -0.425854
vn 0.097535 -0.899520 -0.425854
vn -0.058661 -0.998278 0.000000
vn -0.058661 -0.998278 0.000000
vn -0.058661 -0.998278 0.000000
vn -0.058661 -0.998278 0.000000
vn 0.913732 0.406318 0.000000
vn 0.913732 0.406318 0.000000
vn 0.913732 0.406318 0.000000
vn 0.913732 0.406318 0.000000
vn 0.097534 -0.899517 0.425859
vn 0.097534 -0.899517 0.425859
vn 0.097534 -0.899517 0.425859
vn 0.097534 -0.899517 0.425859
vn 0.529775 0.215888 -0.820202
vn 0.529775 0.215888 -0.820202
vn 0.529775 0.215888 -0.820202
vn 0.529775 0.215888 -0.820202
vn 0.410783 -0.685396 0.601241
vn 0.410783 -0.685396 0.601241
vn 0.410783 -0.685396 0.601241
vn 0.410783 -0.685396 0.601241
vn -0.104104 -0.095726 -0.989949
vn -0.104104 -0.095726 -0.989949
vn -0.104104 -0.095726 -0.989949
vn -0.104104 -0.095726 -0.989949
vn -0.868672 -0.495387 0.000000
vn -0.868672 -0.495387 0.000000
vn -0.868672 -0.495387 0.000000
vn -0.868672 -0.495387 0.000000
vn 0.811797 -0.583939 0.000000
vn 0.811797 -0.583939 0.000000
vn 0.811797 -0.583939 0.000000
vn 0.811797 -0.583939 0.000000
s off
g Lever
usemtl lambert13SG
f 13/1/1 14/2/2 8/3/3 2/4/4
f 2/4/5 8/3/6 7/5/7 10/6/8 9/7/9 3/8/10
f 3/8/11 9/7/12 17/9/13 18/10/14
f 4/11/15 12/12/16 11/13/17 5/14/18 6/15/19 1/16/20
f 7/17/21 15/18/22 16/19/23 10/20/24
f 18/21/25 13/1/26 2/4/27 3/22/28
f 14/2/29 15/18/30 7/17/31 8/3/32
f 9/7/33 10/6/34 16/23/35 17/9/36
f 43/24/37 44/25/38 45/26/39 46/27/40
f 44/25/41 47/28/42 48/29/43 45/26/44
f 49/30/45 48/29/46 47/28/47 50/31/48
f 51/32/49 49/33/50 50/34/51 52/35/52
f 53/36/53 51/32/54 52/35/55 54/37/56
f 54/38/57 43/24/58 46/27/59 53/39/60
f 25/40/61 26/41/62 20/42/63 19/43/64
f 26/41/65 27/44/66 21/45/67 20/42/68
f 22/46/69 21/45/70 27/44/71 28/47/72
f 23/48/73 22/49/74 28/50/75 29/51/76
f 24/52/77 23/48/78 29/51/79 30/53/80
f 30/54/81 25/40/82 19/43/83 24/55/84
f 55/56/85 56/57/86 57/58/87 58/59/88
f 56/57/89 59/60/90 60/61/91 57/58/92
f 61/62/93 60/61/94 59/60/95 62/63/96
f 63/64/97 61/65/98 62/66/99 64/67/100
f 65/68/101 63/64/102 64/67/103 66/69/104
f 66/70/105 55/56/106 58/59/107 65/71/108
f 37/72/109 38/73/110 32/74/111 31/75/112
f 38/73/113 39/76/114 33/77/115 32/74/116
f 34/78/117 33/77/118 39/76/119 40/79/120
f 35/80/121 34/81/122 40/82/123 41/83/124
f 36/84/125 35/80/126 41/83/127 42/85/128
f 42/86/129 37/72/130 31/75/131 36/87/132
f 67/88/133 68/89/134 69/90/135 70/91/136
f 68/89/137 71/92/138 72/93/139 69/90/140
f 73/94/141 72/93/142 71/92/143 74/95/144
f 75/96/145 73/97/146 74/98/147 76/99/148
f 77/100/149 75/96/150 76/99/151 78/101/152
f 78/102/153 67/88/154 70/91/155 77/103/156
f 19/43/157 20/42/158 44/25/159 43/24/160
f 14/2/161 13/1/162 46/27/163 45/26/164
f 20/42/165 21/45/166 47/28/167 44/25/168
f 15/18/169 14/2/170 45/26/171 48/29/172
f 16/19/173 15/18/174 48/29/175 49/30/176
f 21/45/177 22/46/178 50/31/179 47/28/180
f 17/9/181 16/23/182 49/33/183 51/32/184
f 22/49/185 23/48/186 52/35/187 50/34/188
f 18/10/189 17/9/190 51/32/191 53/36/192
f 23/48/193 24/52/194 54/37/195 52/35/196
f 24/55/197 19/43/198 43/24/199 54/38/200
f 13/1/201 18/21/202 53/39/203 46/27/204
f 31/75/205 32/74/206 56/57/207 55/56/208
f 26/41/209 25/40/210 58/59/211 57/58/212
f 32/74/213 33/77/214 59/60/215 56/57/216
f 27/44/217 26/41/218 57/58/219 60/61/220
f 28/47/221 27/44/222 60/61/223 61/62/224
f 33/77/225 34/78/226 62/63/227 59/60/228
f 29/51/229 28/50/230 61/65/231 63/64/232
f 34/81/233 35/80/234 64/67/235 62/66/236
f 30/53/237 29/51/238 63/64/239 65/68/240
f 35/80/241 36/84/242 66/69/243 64/67/244
f 36/87/245 31/75/246 55/56/247 66/70/248
f 25/40/249 30/54/250 65/71/251 58/59/252
f 1/104/253 6/105/254 68/89/255 67/88/256
f 38/73/257 37/72/258 70/91/259 69/90/260
f 6/105/261 5/106/262 71/92/263 68/89/264
f 39/76/265 38/73/266 69/90/267 72/93/268
f 40/79/269 39/76/270 72/93/271 73/94/272
f 5/106/273 11/107/274 74/95/275 71/92/276
f 41/83/277 40/82/278 73/97/279 75/96/280
f 11/13/281 12/12/282 76/99/283 74/98/284
f 42/85/285 41/83/286 75/96/287 77/100/288
f 12/12/289 4/11/290 78/101/291 76/99/292
f 4/108/293 1/104/294 67/88/295 78/102/296
f 37/72/297 42/86/298 77/103/299 70/91/300
g default
v -0.056769 0.325444 -0.081950
v -0.090383 0.308439 -0.119620
v -0.136301 0.285209 -0.133409
v -0.182219 0.261980 -0.119620
v -0.215833 0.244974 -0.081950
v -0.228137 0.238750 -0.030490
v -0.215833 0.244974 0.020969
v -0.182219 0.261980 0.058640
v -0.136301 0.285209 0.072429
v -0.090383 0.308439 0.058640
v -0.056769 0.325444 0.020969
v -0.044465 0.331668 -0.030490
v -1.528773 3.156475 -0.081950
v -1.562387 3.139470 -0.119620
v -1.608305 3.116241 -0.133409
v -1.654223 3.093011 -0.119620
v -1.687837 3.076006 -0.081950
v -1.700141 3.069781 -0.030490
v -1.687837 3.076006 0.020969
v -1.654223 3.093011 0.058640
v -1.608305 3.116241 0.072429
v -1.562387 3.139470 0.058640
v -1.528773 3.156475 0.020969
v -1.516469 3.162700 -0.030490
vt 0.375000 0.312500
vt 0.395833 0.312500
vt 0.395833 0.688440
vt 0.375000 0.688440
vt 0.416667 0.312500
vt 0.416667 0.688440
vt 0.437500 0.312500
vt 0.437500 0.688440
vt 0.458333 0.312500
vt 0.458333 0.688440
vt 0.479167 0.312500
vt 0.479167 0.688440
vt 0.500000 0.312500
vt 0.500000 0.688440
vt 0.520833 0.312500
vt 0.520833 0.688440
vt 0.541667 0.312500
vt 0.541667 0.688440
vt 0.562500 0.312500
vt 0.562500 0.688440
vt 0.583333 0.312500
vt 0.583333 0.688440
vt 0.604167 0.312500
vt 0.604167 0.688440
vt 0.625000 0.312500
vt 0.625000 0.688440
vn 0.627388 0.326213 -0.707085
vn 0.627388 0.326213 -0.707085
vn 0.627388 0.326213 -0.707085
vn 0.627388 0.326213 -0.707085
vn 0.229646 0.119405 -0.965922
vn 0.229646 0.119405 -0.965922
vn 0.229646 0.119405 -0.965922
vn 0.229646 0.119405 -0.965922
vn -0.229646 -0.119405 -0.965922
vn -0.229646 -0.119405 -0.965922
vn -0.229646 -0.119405 -0.965922
vn -0.229646 -0.119405 -0.965922
vn -0.627388 -0.326213 -0.707085
vn -0.627388 -0.326213 -0.707085
vn -0.627388 -0.326213 -0.707085
vn -0.627388 -0.326213 -0.707085
vn -0.857006 -0.445603 -0.258804
vn -0.857006 -0.445603 -0.258804
vn -0.857006 -0.445603 -0.258804
vn -0.857006 -0.445603 -0.258804
vn -0.857006 -0.445603 0.258804
vn -0.857006 -0.445603 0.258804
vn -0.857006 -0.445603 0.258804
vn -0.857006 -0.445603 0.258804
vn -0.627388 -0.326213 0.707085
vn -0.627388 -0.326213 0.707085
vn -0.627388 -0.326213 0.707085
vn -0.627388 -0.326213 0.707085
vn -0.229646 -0.119405 0.965922
vn -0.229646 -0.119405 0.965922
vn -0.229646 -0.119405 0.965922
vn -0.229646 -0.119405 0.965922
vn 0.229646 0.119405 0.965922
vn 0.229646 0.119405 0.965922
vn 0.229646 0.119405 0.965922
vn 0.229646 0.119405 0.965922
vn 0.627388 0.326213 0.707085
vn 0.627388 0.326213 0.707085
vn 0.627388 0.326213 0.707085
vn 0.627388 0.326213 0.707085
vn 0.857006 0.445603 0.258804
vn 0.857006 0.445603 0.258804
vn 0.857006 0.445603 0.258804
vn 0.857006 0.445603 0.258804
vn 0.857006 0.445603 -0.258804
vn 0.857006 0.445603 -0.258804
vn 0.857006 0.445603 -0.258804
vn 0.857006 0.445603 -0.258804
s off
g Lever polySurface4
usemtl lambert7SG
f 79/109/301 80/110/302 92/111/303 91/112/304
f 80/110/305 81/113/306 93/114/307 92/111/308
f 81/113/309 82/115/310 94/116/311 93/114/312
f 82/115/313 83/117/314 95/118/315 94/116/316
f 83/117/317 84/119/318 96/120/319 95/118/320
f 84/119/321 85/121/322 97/122/323 96/120/324
f 85/121/325 86/123/326 98/124/327 97/122/328
f 86/123/329 87/125/330 99/126/331 98/124/332
f 87/125/333 88/127/334 100/128/335 99/126/336
f 88/127/337 89/129/338 101/130/339 100/128/340
f 89/129/341 90/131/342 102/132/343 101/130/344
f 90/131/345 79/133/346 91/134/347 102/132/348
