# This file uses centimeters as units for non-parametric coordinates.

mtllib Box.mtl
g default
v -0.000000 -0.000000 4.162346
v 4.162347 -0.000000 4.162346
v -0.000000 4.162346 4.162346
v 4.162347 4.162346 4.162346
v 0.000000 4.162346 0.000000
v 4.162346 4.162346 0.000000
v 0.000000 0.000000 0.000000
v 4.162346 0.000000 0.000000
v 0.000000 3.746112 4.162346
v 4.162346 3.746112 4.162347
v 4.162346 3.746112 0.000000
v 0.000000 3.746112 0.000000
v 0.000000 0.374611 4.162346
v 4.162346 0.374611 4.162346
v 4.162346 0.374611 -0.000000
v 0.000000 0.374611 0.000000
v 0.416235 0.000000 4.162346
v 0.416235 0.000000 -0.000000
v 0.416235 0.374611 -0.000000
v 0.416235 3.746112 -0.000000
v 0.416235 4.162346 0.000000
v 0.416235 4.162346 4.162346
v 0.416235 3.746111 4.162346
v 0.416235 0.374611 4.162346
v 3.787735 3.746111 0.000000
v 3.787735 0.374611 0.000000
v 3.787735 0.000000 0.000000
v 3.787735 0.000000 4.162346
v 3.787735 0.374611 4.162346
v 3.787735 3.746111 4.162346
v 3.787735 4.162346 4.162346
v 3.787735 4.162346 0.000000
v 0.000000 4.162346 3.746112
v 0.416235 4.162346 3.746112
v 3.787735 4.162346 3.746112
v 4.162346 4.162346 3.746112
v 4.162346 3.746111 3.746112
v 4.162346 0.374611 3.746112
v 4.162346 0.000000 3.746112
v 3.787735 0.000000 3.746112
v 0.416235 0.000000 3.746112
v 0.000000 0.000000 3.746112
v 0.000000 0.374611 3.746111
v 0.000000 3.746112 3.746112
v 0.000000 0.000000 0.374611
v 0.416235 0.000000 0.374611
v 3.787735 0.000000 0.374611
v 4.162346 0.000000 0.374611
v 4.162346 0.374611 0.374611
v 4.162346 3.746111 0.374611
v 4.162346 4.162346 0.374611
v 3.787735 4.162346 0.374611
v 0.416235 4.162346 0.374611
v 0.000000 4.162346 0.374611
v 0.000000 3.746111 0.374611
v 0.000000 0.374611 0.374611
v 0.604663 3.555328 3.926811
v 0.604663 0.565395 3.926811
v 3.594596 0.565395 3.926811
v 3.594596 3.555328 3.926811
v 3.926811 3.555328 3.557683
v 3.926811 0.565395 3.557683
v 3.926811 0.565395 0.567750
v 3.926811 3.555328 0.567750
v 0.604663 0.565395 0.235535
v 0.604663 3.555328 0.235535
v 3.594596 3.555328 0.235535
v 3.594596 0.565395 0.235535
v 0.235535 3.555328 0.567750
v 0.235535 0.565395 0.567750
v 0.235535 0.565395 3.557683
v 0.235535 3.555328 3.557683
v 0.892833 0.190499 0.254384
v 1.301886 0.190499 0.254384
v 0.892833 3.931630 0.254384
v 1.301886 3.931630 0.254384
v 0.892833 3.931630 0.033885
v 1.301886 3.931630 0.033885
v 0.892833 0.190499 0.033885
v 1.301886 0.190499 0.033885
v 1.988964 0.190499 0.254384
v 2.398016 0.190499 0.254384
v 1.988964 3.931630 0.254384
v 2.398016 3.931630 0.254384
v 1.988964 3.931630 0.033885
v 2.398016 3.931630 0.033885
v 1.988964 0.190499 0.033885
v 2.398016 0.190499 0.033885
v 2.977119 0.190499 0.254384
v 3.386172 0.190499 0.254384
v 2.977119 3.931630 0.254384
v 3.386172 3.931630 0.254384
v 2.977119 3.931630 0.033885
v 3.386172 3.931630 0.033885
v 2.977119 0.190499 0.033885
v 3.386172 0.190499 0.033885
v 2.944621 0.190499 4.151992
v 3.353673 0.190499 4.151992
v 2.944621 3.931630 4.151992
v 3.353673 3.931630 4.151992
v 2.944621 3.931630 3.931494
v 3.353673 3.931630 3.931494
v 2.944621 0.190499 3.931494
v 3.353673 0.190499 3.931494
v 1.891382 0.190499 4.151992
v 2.300435 0.190499 4.151992
v 1.891382 3.931630 4.151992
v 2.300435 3.931630 4.151992
v 1.891382 3.931630 3.931494
v 2.300435 3.931630 3.931494
v 1.891382 0.190499 3.931494
v 2.300435 0.190499 3.931494
v 0.805833 0.190499 4.151992
v 1.214885 0.190499 4.151992
v 0.805833 3.931630 4.151992
v 1.214885 3.931630 4.151992
v 0.805833 3.931630 3.931494
v 1.214885 3.931630 3.931494
v 0.805833 0.190499 3.931494
v 1.214885 0.190499 3.931494
v 4.136178 0.566467 3.896206
v 4.136178 0.227098 3.556837
v 4.136178 3.885067 0.544475
v 4.136178 3.545697 0.205105
v 3.877467 3.885067 0.544475
v 3.877467 3.545697 0.205105
v 3.877467 0.566467 3.896206
v 3.877467 0.227098 3.556837
v 0.295742 0.566467 3.896206
v 0.295742 0.227098 3.556837
v 0.295742 3.885067 0.544475
v 0.295742 3.545697 0.205105
v 0.037031 3.885067 0.544475
v 0.037031 3.545697 0.205105
v 0.037031 0.566467 3.896206
v 0.037031 0.227098 3.556837
vt 0.375000 0.000000
vt 0.625000 0.000000
vt 0.375000 0.250000
vt 0.625000 0.250000
vt 0.375000 0.500000
vt 0.625000 0.500000
vt 0.375000 0.750000
vt 0.625000 0.750000
vt 0.375000 1.000000
vt 0.625000 1.000000
vt 0.875000 0.000000
vt 0.875000 0.250000
vt 0.125000 0.000000
vt 0.125000 0.250000
vt 0.375000 0.225000
vt 0.625000 0.225000
vt 0.625000 0.525000
vt 0.875000 0.225000
vt 0.125000 0.225000
vt 0.375000 0.525000
vt 0.375000 0.022500
vt 0.625000 0.022500
vt 0.625000 0.727500
vt 0.875000 0.022500
vt 0.125000 0.022500
vt 0.375000 0.727500
vt 0.400000 0.000000
vt 0.400000 1.000000
vt 0.400000 0.750000
vt 0.400000 0.727500
vt 0.400000 0.525000
vt 0.400000 0.500000
vt 0.400000 0.250000
vt 0.400000 0.225000
vt 0.400000 0.022500
vt 0.602500 0.525000
vt 0.602500 0.727500
vt 0.602500 0.750000
vt 0.602500 0.000000
vt 0.602500 1.000000
vt 0.602500 0.022500
vt 0.602500 0.225000
vt 0.602500 0.250000
vt 0.602500 0.500000
vt 0.350000 0.250000
vt 0.375000 0.275000
vt 0.400000 0.275000
vt 0.602500 0.275000
vt 0.625000 0.275000
vt 0.650000 0.250000
vt 0.650000 0.225000
vt 0.650000 0.022500
vt 0.625000 0.975000
vt 0.650000 0.000000
vt 0.602500 0.975000
vt 0.400000 0.975000
vt 0.350000 0.000000
vt 0.375000 0.975000
vt 0.350000 0.022500
vt 0.350000 0.225000
vt 0.147500 0.000000
vt 0.375000 0.772500
vt 0.400000 0.772500
vt 0.602500 0.772500
vt 0.625000 0.772500
vt 0.852500 0.000000
vt 0.852500 0.022500
vt 0.852500 0.225000
vt 0.625000 0.477500
vt 0.852500 0.250000
vt 0.602500 0.477500
vt 0.400000 0.477500
vt 0.147500 0.250000
vt 0.375000 0.477500
vt 0.147500 0.225000
vt 0.147500 0.022500
vt 0.400000 0.225000
vt 0.400000 0.022500
vt 0.602500 0.022500
vt 0.602500 0.225000
vt 0.650000 0.225000
vt 0.650000 0.022500
vt 0.852500 0.022500
vt 0.852500 0.225000
vt 0.400000 0.727500
vt 0.400000 0.525000
vt 0.602500 0.525000
vt 0.602500 0.727500
vt 0.147500 0.225000
vt 0.147500 0.022500
vt 0.350000 0.022500
vt 0.350000 0.225000
vt 0.375000 0.000000
vt 0.625000 0.000000
vt 0.625000 0.250000
vt 0.375000 0.250000
vt 0.625000 0.500000
vt 0.375000 0.500000
vt 0.625000 0.750000
vt 0.375000 0.750000
vt 0.625000 1.000000
vt 0.375000 1.000000
vt 0.875000 0.000000
vt 0.875000 0.250000
vt 0.125000 0.000000
vt 0.125000 0.250000
vt 0.375000 0.000000
vt 0.625000 0.000000
vt 0.625000 0.250000
vt 0.375000 0.250000
vt 0.625000 0.500000
vt 0.375000 0.500000
vt 0.625000 0.750000
vt 0.375000 0.750000
vt 0.625000 1.000000
vt 0.375000 1.000000
vt 0.875000 0.000000
vt 0.875000 0.250000
vt 0.125000 0.000000
vt 0.125000 0.250000
vt 0.375000 0.000000
vt 0.625000 0.000000
vt 0.625000 0.250000
vt 0.375000 0.250000
vt 0.625000 0.500000
vt 0.375000 0.500000
vt 0.625000 0.750000
vt 0.375000 0.750000
vt 0.625000 1.000000
vt 0.375000 1.000000
vt 0.875000 0.000000
vt 0.875000 0.250000
vt 0.125000 0.000000
vt 0.125000 0.250000
vt 0.375000 0.000000
vt 0.625000 0.000000
vt 0.625000 0.250000
vt 0.375000 0.250000
vt 0.625000 0.500000
vt 0.375000 0.500000
vt 0.625000 0.750000
vt 0.375000 0.750000
vt 0.625000 1.000000
vt 0.375000 1.000000
vt 0.875000 0.000000
vt 0.875000 0.250000
vt 0.125000 0.000000
vt 0.125000 0.250000
vt 0.375000 0.000000
vt 0.625000 0.000000
vt 0.625000 0.250000
vt 0.375000 0.250000
vt 0.625000 0.500000
vt 0.375000 0.500000
vt 0.625000 0.750000
vt 0.375000 0.750000
vt 0.625000 1.000000
vt 0.375000 1.000000
vt 0.875000 0.000000
vt 0.875000 0.250000
vt 0.125000 0.000000
vt 0.125000 0.250000
vt 0.375000 0.000000
vt 0.625000 0.000000
vt 0.625000 0.250000
vt 0.375000 0.250000
vt 0.625000 0.500000
vt 0.375000 0.500000
vt 0.625000 0.750000
vt 0.375000 0.750000
vt 0.625000 1.000000
vt 0.375000 1.000000
vt 0.875000 0.000000
vt 0.875000 0.250000
vt 0.125000 0.000000
vt 0.125000 0.250000
vt 0.375000 0.000000
vt 0.625000 0.000000
vt 0.625000 0.250000
vt 0.375000 0.250000
vt 0.625000 0.500000
vt 0.375000 0.500000
vt 0.625000 0.750000
vt 0.375000 0.750000
vt 0.625000 1.000000
vt 0.375000 1.000000
vt 0.875000 0.000000
vt 0.875000 0.250000
vt 0.125000 0.000000
vt 0.125000 0.250000
vt 0.375000 0.000000
vt 0.625000 0.000000
vt 0.625000 0.250000
vt 0.375000 0.250000
vt 0.625000 0.500000
vt 0.375000 0.500000
vt 0.625000 0.750000
vt 0.375000 0.750000
vt 0.625000 1.000000
vt 0.375000 1.000000
vt 0.875000 0.000000
vt 0.875000 0.250000
vt 0.125000 0.000000
vt 0.125000 0.250000
vn -0.000000 0.000000 1.000000
vn -0.000001 -0.000000 1.000000
vn 0.000000 -0.000000 1.000000
vn -0.000000 0.000000 1.000000
vn 0.000000 1.000000 0.000000
vn 0.000000 1.000000 -0.000000
vn 0.000000 1.000000 0.000000
vn 0.000000 1.000000 0.000000
vn -0.000000 0.000000 -1.000000
vn 0.000000 0.000000 -1.000000
vn 0.000000 0.000000 -1.000000
vn 0.000000 0.000000 -1.000000
vn -0.000000 -1.000000 -0.000000
vn 0.000000 -1.000000 -0.000000
vn 0.000000 -1.000000 0.000000
vn 0.000000 -1.000000 0.000000
vn 1.000000 -0.000000 -0.000000
vn 1.000000 -0.000000 -0.000000
vn 1.000000 -0.000000 0.000000
vn 1.000000 0.000000 0.000000
vn -1.000000 0.000000 0.000000
vn -1.000000 0.000000 0.000000
vn -1.000000 -0.000000 -0.000000
vn -1.000000 -0.000000 -0.000000
vn 0.000000 0.000000 1.000000
vn 0.000000 0.000000 1.000000
vn 0.000000 0.000000 1.000000
vn 0.000000 0.000000 1.000000
vn 1.000000 0.000000 0.000000
vn 1.000000 0.000000 0.000000
vn 1.000000 0.000000 0.000000
vn 1.000000 0.000000 0.000000
vn 0.000000 0.000000 -1.000000
vn 0.000000 0.000000 -1.000000
vn 0.000000 0.000000 -1.000000
vn 0.000000 0.000000 -1.000000
vn -1.000000 0.000000 0.000000
vn -1.000000 0.000000 0.000000
vn -1.000000 0.000000 0.000000
vn -1.000000 0.000000 0.000000
vn -0.000001 -0.000000 1.000000
vn -0.000000 -0.000001 1.000000
vn -0.000000 -0.000001 1.000000
vn 0.000000 -0.000000 1.000000
vn 1.000000 -0.000000 -0.000000
vn 1.000000 -0.000001 -0.000000
vn 1.000000 -0.000001 0.000000
vn 1.000000 -0.000000 0.000000
vn -0.000000 0.000000 -1.000000
vn -0.000000 0.000000 -1.000000
vn 0.000000 0.000000 -1.000000
vn 0.000000 -0.000000 -1.000000
vn -1.000000 0.000000 0.000000
vn -1.000000 0.000000 0.000000
vn -1.000000 0.000000 -0.000000
vn -1.000000 0.000000 -0.000000
vn 0.000000 -1.000000 0.000000
vn 0.000000 -1.000000 -0.000000
vn -0.000001 0.000000 -1.000000
vn -0.000001 0.000000 -1.000000
vn -0.000001 0.000000 -1.000000
vn -0.000000 0.000000 -1.000000
vn 0.000000 1.000000 0.000000
vn 0.000000 1.000000 0.000000
vn -0.000002 -0.000000 1.000000
vn -0.000001 0.000000 1.000000
vn -0.000002 -0.000000 1.000000
vn 0.000000 0.000000 1.000000
vn 0.000000 0.000000 -1.000000
vn -0.000000 0.000000 -1.000000
vn -0.000000 -0.000000 -1.000000
vn -0.000000 -1.000000 -0.000000
vn 0.000000 -1.000000 0.000000
vn 0.000001 0.000001 1.000000
vn 0.000001 -0.000000 1.000000
vn 0.000001 -0.000000 1.000000
vn -0.000001 0.000001 1.000000
vn 0.000000 1.000000 0.000000
vn 0.000000 1.000000 -0.000000
vn 0.000000 -0.000000 -1.000000
vn 0.000000 1.000000 -0.000000
vn 0.000000 1.000000 -0.000000
vn 0.000000 1.000000 -0.000000
vn 0.000000 1.000000 -0.000000
vn 1.000000 -0.000000 -0.000000
vn 1.000000 -0.000001 -0.000001
vn 1.000000 0.000000 -0.000000
vn 1.000000 0.000001 -0.000001
vn -0.000000 -1.000000 -0.000000
vn -0.000000 -1.000000 -0.000000
vn 0.000000 -1.000000 -0.000000
vn 0.000000 -1.000000 -0.000000
vn -1.000000 0.000000 -0.000000
vn -1.000000 0.000000 -0.000000
vn -1.000000 -0.000000 -0.000000
vn -1.000000 -0.000000 -0.000000
vn 0.000000 -1.000000 0.000000
vn 0.000000 -1.000000 0.000000
vn 0.000000 -1.000000 0.000000
vn 0.000000 -1.000000 0.000000
vn 1.000000 0.000000 0.000000
vn 1.000000 -0.000000 0.000000
vn 1.000000 -0.000000 0.000000
vn 1.000000 0.000000 0.000000
vn 0.000000 1.000000 -0.000001
vn 0.000000 1.000000 0.000000
vn 0.000000 1.000000 -0.000001
vn 0.000000 1.000000 -0.000001
vn -1.000000 0.000000 0.000000
vn -1.000000 0.000000 0.000000
vn -1.000000 0.000000 0.000000
vn -1.000000 0.000000 0.000000
vn 0.780869 0.000000 0.624695
vn 0.780869 0.000000 0.624695
vn 0.780869 0.000000 0.624695
vn 0.780869 0.000000 0.624695
vn 0.000000 0.777064 0.629422
vn 0.000000 0.777064 0.629422
vn 0.000000 0.777064 0.629422
vn 0.000000 0.777064 0.629422
vn -0.773268 0.000000 0.634080
vn -0.773268 0.000000 0.634080
vn -0.773268 0.000000 0.634080
vn -0.773268 0.000000 0.634080
vn 0.000000 -0.777064 0.629422
vn 0.000000 -0.777064 0.629422
vn 0.000000 -0.777064 0.629422
vn 0.000000 -0.777064 0.629422
vn 0.624696 0.000000 -0.780868
vn 0.624696 0.000000 -0.780868
vn 0.624696 0.000000 -0.780868
vn 0.624696 0.000000 -0.780868
vn 0.629423 0.777063 0.000000
vn 0.629423 0.777063 0.000000
vn 0.629423 0.777063 0.000000
vn 0.629423 0.777063 0.000000
vn 0.634080 0.000000 0.773268
vn 0.634080 0.000000 0.773268
vn 0.634080 0.000000 0.773268
vn 0.634080 0.000000 0.773268
vn 0.629422 -0.777063 0.000000
vn 0.629422 -0.777063 0.000000
vn 0.629422 -0.777063 0.000000
vn 0.629422 -0.777063 0.000000
vn 0.780869 0.000000 -0.624695
vn 0.780869 0.000000 -0.624695
vn 0.780869 0.000000 -0.624695
vn 0.780869 0.000000 -0.624695
vn -0.000000 -0.777063 -0.629423
vn -0.000000 -0.777063 -0.629423
vn -0.000000 -0.777063 -0.629423
vn -0.000000 -0.777063 -0.629423
vn -0.773267 0.000000 -0.634080
vn -0.773267 0.000000 -0.634080
vn -0.773267 0.000000 -0.634080
vn -0.773267 0.000000 -0.634080
vn 0.000000 0.777064 -0.629422
vn 0.000000 0.777064 -0.629422
vn 0.000000 0.777064 -0.629422
vn 0.000000 0.777064 -0.629422
vn -0.634080 0.000000 0.773268
vn -0.634080 0.000000 0.773268
vn -0.634080 0.000000 0.773268
vn -0.634080 0.000000 0.773268
vn -0.629422 0.777064 0.000000
vn -0.629422 0.777064 0.000000
vn -0.629422 0.777064 0.000000
vn -0.629422 0.777064 0.000000
vn -0.624694 0.000000 -0.780869
vn -0.624694 0.000000 -0.780869
vn -0.624694 0.000000 -0.780869
vn -0.624694 0.000000 -0.780869
vn -0.629422 -0.777064 0.000000
vn -0.629422 -0.777064 0.000000
vn -0.629422 -0.777064 0.000000
vn -0.629422 -0.777064 0.000000
vn 0.000000 0.000000 1.000000
vn 0.000000 0.000000 1.000000
vn 0.000000 0.000000 1.000000
vn 0.000000 0.000000 1.000000
vn 0.000000 1.000000 0.000000
vn 0.000000 1.000000 0.000000
vn 0.000000 1.000000 0.000000
vn 0.000000 1.000000 0.000000
vn 0.000000 0.000000 -1.000000
vn 0.000000 0.000000 -1.000000
vn 0.000000 0.000000 -1.000000
vn 0.000000 0.000000 -1.000000
vn 0.000000 -1.000000 0.000000
vn 0.000000 -1.000000 0.000000
vn 0.000000 -1.000000 0.000000
vn 0.000000 -1.000000 0.000000
vn 1.000000 0.000000 0.000000
vn 1.000000 0.000000 0.000000
vn 1.000000 0.000000 0.000000
vn 1.000000 0.000000 0.000000
vn -1.000000 0.000000 0.000000
vn -1.000000 0.000000 0.000000
vn -1.000000 0.000000 0.000000
vn -1.000000 0.000000 0.000000
vn 0.000000 0.000000 1.000000
vn 0.000000 0.000000 1.000000
vn 0.000000 0.000000 1.000000
vn 0.000000 0.000000 1.000000
vn 0.000000 1.000000 0.000000
vn 0.000000 1.000000 0.000000
vn 0.000000 1.000000 0.000000
vn 0.000000 1.000000 0.000000
vn 0.000000 0.000000 -1.000000
vn 0.000000 0.000000 -1.000000
vn 0.000000 0.000000 -1.000000
vn 0.000000 0.000000 -1.000000
vn 0.000000 -1.000000 0.000000
vn 0.000000 -1.000000 0.000000
vn 0.000000 -1.000000 0.000000
vn 0.000000 -1.000000 0.000000
vn 1.000000 0.000000 0.000000
vn 1.000000 0.000000 0.000000
vn 1.000000 0.000000 0.000000
vn 1.000000 0.000000 0.000000
vn -1.000000 0.000000 0.000000
vn -1.000000 0.000000 0.000000
vn -1.000000 0.000000 0.000000
vn -1.000000 0.000000 0.000000
vn 0.000000 0.000000 1.000000
vn 0.000000 0.000000 1.000000
vn 0.000000 0.000000 1.000000
vn 0.000000 0.000000 1.000000
vn 0.000000 1.000000 0.000000
vn 0.000000 1.000000 0.000000
vn 0.000000 1.000000 0.000000
vn 0.000000 1.000000 0.000000
vn 0.000000 0.000000 -1.000000
vn 0.000000 0.000000 -1.000000
vn 0.000000 0.000000 -1.000000
vn 0.000000 0.000000 -1.000000
vn 0.000000 -1.000000 0.000000
vn 0.000000 -1.000000 0.000000
vn 0.000000 -1.000000 0.000000
vn 0.000000 -1.000000 0.000000
vn 1.000000 0.000000 0.000000
vn 1.000000 0.000000 0.000000
vn 1.000000 0.000000 0.000000
vn 1.000000 0.000000 0.000000
vn -1.000000 0.000000 0.000000
vn -1.000000 0.000000 0.000000
vn -1.000000 0.000000 0.000000
vn -1.000000 0.000000 0.000000
vn 0.000000 0.000000 1.000000
vn 0.000000 0.000000 1.000000
vn 0.000000 0.000000 1.000000
vn 0.000000 0.000000 1.000000
vn 0.000000 1.000000 0.000000
vn 0.000000 1.000000 0.000000
vn 0.000000 1.000000 0.000000
vn 0.000000 1.000000 0.000000
vn 0.000000 0.000000 -1.000000
vn 0.000000 0.000000 -1.000000
vn 0.000000 0.000000 -1.000000
vn 0.000000 0.000000 -1.000000
vn 0.000000 -1.000000 0.000000
vn 0.000000 -1.000000 0.000000
vn 0.000000 -1.000000 0.000000
vn 0.000000 -1.000000 0.000000
vn 1.000000 0.000000 0.000000
vn 1.000000 0.000000 0.000000
vn 1.000000 0.000000 0.000000
vn 1.000000 0.000000 0.000000
vn -1.000000 0.000000 0.000000
vn -1.000000 0.000000 0.000000
vn -1.000000 0.000000 0.000000
vn -1.000000 0.000000 0.000000
vn 0.000000 0.000000 1.000000
vn 0.000000 0.000000 1.000000
vn 0.000000 0.000000 1.000000
vn 0.000000 0.000000 1.000000
vn 0.000000 1.000000 0.000000
vn 0.000000 1.000000 0.000000
vn 0.000000 1.000000 0.000000
vn 0.000000 1.000000 0.000000
vn 0.000000 0.000000 -1.000000
vn 0.000000 0.000000 -1.000000
vn 0.000000 0.000000 -1.000000
vn 0.000000 0.000000 -1.000000
vn 0.000000 -1.000000 0.000000
vn 0.000000 -1.000000 0.000000
vn 0.000000 -1.000000 0.000000
vn 0.000000 -1.000000 0.000000
vn 1.000000 0.000000 0.000000
vn 1.000000 0.000000 0.000000
vn 1.000000 0.000000 0.000000
vn 1.000000 0.000000 0.000000
vn -1.000000 0.000000 0.000000
vn -1.000000 0.000000 0.000000
vn -1.000000 0.000000 0.000000
vn -1.000000 0.000000 0.000000
vn 0.000000 0.000000 1.000000
vn 0.000000 0.000000 1.000000
vn 0.000000 0.000000 1.000000
vn 0.000000 0.000000 1.000000
vn 0.000000 1.000000 0.000000
vn 0.000000 1.000000 0.000000
vn 0.000000 1.000000 0.000000
vn 0.000000 1.000000 0.000000
vn 0.000000 0.000000 -1.000000
vn 0.000000 0.000000 -1.000000
vn 0.000000 0.000000 -1.000000
vn 0.000000 0.000000 -1.000000
vn 0.000000 -1.000000 0.000000
vn 0.000000 -1.000000 0.000000
vn 0.000000 -1.000000 0.000000
vn 0.000000 -1.000000 0.000000
vn 1.000000 0.000000 0.000000
vn 1.000000 0.000000 0.000000
vn 1.000000 0.000000 0.000000
vn 1.000000 0.000000 0.000000
vn -1.000000 0.000000 0.000000
vn -1.000000 0.000000 0.000000
vn -1.000000 0.000000 0.000000
vn -1.000000 0.000000 0.000000
vn 1.000000 0.000000 0.000000
vn 1.000000 0.000000 0.000000
vn 1.000000 0.000000 0.000000
vn 1.000000 0.000000 0.000000
vn 0.000000 0.707107 -0.707107
vn 0.000000 0.707107 -0.707107
vn 0.000000 0.707107 -0.707107
vn 0.000000 0.707107 -0.707107
vn -1.000000 0.000000 0.000000
vn -1.000000 0.000000 0.000000
vn -1.000000 0.000000 0.000000
vn -1.000000 0.000000 0.000000
vn 0.000000 -0.707107 0.707107
vn 0.000000 -0.707107 0.707107
vn 0.000000 -0.707107 0.707107
vn 0.000000 -0.707107 0.707107
vn 0.000000 -0.710610 -0.703586
vn 0.000000 -0.710610 -0.703586
vn 0.000000 -0.710610 -0.703586
vn 0.000000 -0.710610 -0.703586
vn 0.000000 0.710610 0.703586
vn 0.000000 0.710610 0.703586
vn 0.000000 0.710610 0.703586
vn 0.000000 0.710610 0.703586
vn 1.000000 0.000000 0.000000
vn 1.000000 0.000000 0.000000
vn 1.000000 0.000000 0.000000
vn 1.000000 0.000000 0.000000
vn 0.000000 0.707107 -0.707107
vn 0.000000 0.707107 -0.707107
vn 0.000000 0.707107 -0.707107
vn 0.000000 0.707107 -0.707107
vn -1.000000 0.000000 0.000000
vn -1.000000 0.000000 0.000000
vn -1.000000 0.000000 0.000000
vn -1.000000 0.000000 0.000000
vn 0.000000 -0.707107 0.707107
vn 0.000000 -0.707107 0.707107
vn 0.000000 -0.707107 0.707107
vn 0.000000 -0.707107 0.707107
vn 0.000000 -0.710610 -0.703586
vn 0.000000 -0.710610 -0.703586
vn 0.000000 -0.710610 -0.703586
vn 0.000000 -0.710610 -0.703586
vn 0.000000 0.710610 0.703586
vn 0.000000 0.710610 0.703586
vn 0.000000 0.710610 0.703586
vn 0.000000 0.710610 0.703586
s 1
g Box
usemtl lambert10SG
f 22/33/1 23/34/2 30/42/3 31/43/4
s 2
f 52/71/5 53/72/6 34/47/7 35/48/8
s 3
f 20/31/9 21/32/10 32/44/11 25/36/12
s 4
f 40/55/13 41/56/14 46/63/15 47/64/16
s 5
f 36/50/17 37/51/18 50/68/19 51/70/20
s 6
f 54/73/21 55/75/22 44/60/23 33/45/24
s off
f 57/77/25 58/78/26 59/79/27 60/80/28
f 61/81/29 62/82/30 63/83/31 64/84/32
f 65/85/33 66/86/34 67/87/35 68/88/36
f 69/89/37 70/90/38 71/91/39 72/92/40
s 1
f 24/35/41 17/27/42 28/39/43 29/41/44
s 5
f 38/52/45 39/54/46 48/66/47 49/67/48
s 3
f 18/29/49 19/30/50 26/37/51 27/38/52
s 6
f 56/76/53 45/61/54 42/57/55 43/59/56
s 4
f 45/62/57 46/63/15 41/56/14 42/58/58
s 3
f 16/26/59 19/30/50 18/29/49 7/7/60
f 12/20/61 20/31/9 19/30/50 16/26/59
f 5/5/62 21/32/10 20/31/9 12/20/61
s 2
f 33/46/63 34/47/7 53/72/6 54/74/64
s 1
f 9/15/65 23/34/2 22/33/1 3/3/66
f 13/21/67 24/35/41 23/34/2 9/15/65
f 1/1/68 17/27/42 24/35/41 13/21/67
s 3
f 26/37/51 25/36/12 11/17/69 15/23/70
f 27/38/52 26/37/51 15/23/70 8/8/71
s 4
f 39/53/72 40/55/13 47/64/16 48/65/73
s 1
f 29/41/44 28/39/43 2/2/74 14/22/75
f 30/42/3 29/41/44 14/22/75 10/16/76
f 31/43/4 30/42/3 10/16/76 4/4/77
s 2
f 51/69/78 52/71/5 35/48/8 36/49/79
s 3
f 25/36/12 32/44/11 6/6/80 11/17/69
s 2
f 3/3/81 22/33/82 34/47/7 33/46/63
f 35/48/8 34/47/7 22/33/82 31/43/83
f 36/49/79 35/48/8 31/43/83 4/4/84
s 5
f 10/16/85 37/51/18 36/50/17 4/4/86
f 14/22/87 38/52/45 37/51/18 10/16/85
f 2/2/88 39/54/46 38/52/45 14/22/87
s 4
f 28/40/89 40/55/13 39/53/72 2/10/90
f 17/28/91 41/56/14 40/55/13 28/40/89
f 42/58/58 41/56/14 17/28/91 1/9/92
s 6
f 43/59/56 42/57/55 1/1/93 13/21/94
f 44/60/23 43/59/56 13/21/94 9/15/95
f 33/45/24 44/60/23 9/15/95 3/3/96
s 4
f 7/7/97 18/29/98 46/63/15 45/62/57
f 47/64/16 46/63/15 18/29/98 27/38/99
f 48/65/73 47/64/16 27/38/99 8/8/100
s 5
f 49/67/48 48/66/47 8/11/101 15/24/102
f 50/68/19 49/67/48 15/24/102 11/18/103
f 51/70/20 50/68/19 11/18/103 6/12/104
s 2
f 32/44/105 52/71/5 51/69/78 6/6/106
f 21/32/107 53/72/6 52/71/5 32/44/105
f 54/74/64 53/72/6 21/32/107 5/5/108
s 6
f 12/19/109 55/75/22 54/73/21 5/14/110
f 16/25/111 56/76/53 55/75/22 12/19/109
f 7/13/112 45/61/54 56/76/53 16/25/111
s off
f 23/34/113 24/35/114 58/78/115 57/77/116
f 24/35/117 29/41/118 59/79/119 58/78/120
f 29/41/121 30/42/122 60/80/123 59/79/124
f 30/42/125 23/34/126 57/77/127 60/80/128
f 37/51/129 38/52/130 62/82/131 61/81/132
f 38/52/133 49/67/134 63/83/135 62/82/136
f 49/67/137 50/68/138 64/84/139 63/83/140
f 50/68/141 37/51/142 61/81/143 64/84/144
f 19/30/145 20/31/146 66/86/147 65/85/148
f 20/31/149 25/36/150 67/87/151 66/86/152
f 25/36/153 26/37/154 68/88/155 67/87/156
f 26/37/157 19/30/158 65/85/159 68/88/160
f 55/75/161 56/76/162 70/90/163 69/89/164
f 56/76/165 43/59/166 71/91/167 70/90/168
f 43/59/169 44/60/170 72/92/171 71/91/172
f 44/60/173 55/75/174 69/89/175 72/92/176
f 73/93/177 74/94/178 76/95/179 75/96/180
f 75/96/181 76/95/182 78/97/183 77/98/184
f 77/98/185 78/97/186 80/99/187 79/100/188
f 79/100/189 80/99/190 74/101/191 73/102/192
f 74/94/193 80/103/194 78/104/195 76/95/196
f 79/105/197 73/93/198 75/96/199 77/106/200
f 81/107/201 82/108/202 84/109/203 83/110/204
f 83/110/205 84/109/206 86/111/207 85/112/208
f 85/112/209 86/111/210 88/113/211 87/114/212
f 87/114/213 88/113/214 82/115/215 81/116/216
f 82/108/217 88/117/218 86/118/219 84/109/220
f 87/119/221 81/107/222 83/110/223 85/120/224
f 89/121/225 90/122/226 92/123/227 91/124/228
f 91/124/229 92/123/230 94/125/231 93/126/232
f 93/126/233 94/125/234 96/127/235 95/128/236
f 95/128/237 96/127/238 90/129/239 89/130/240
f 90/122/241 96/131/242 94/132/243 92/123/244
f 95/133/245 89/121/246 91/124/247 93/134/248
f 97/135/249 98/136/250 100/137/251 99/138/252
f 99/138/253 100/137/254 102/139/255 101/140/256
f 101/140/257 102/139/258 104/141/259 103/142/260
f 103/142/261 104/141/262 98/143/263 97/144/264
f 98/136/265 104/145/266 102/146/267 100/137/268
f 103/147/269 97/135/270 99/138/271 101/148/272
f 105/149/273 106/150/274 108/151/275 107/152/276
f 107/152/277 108/151/278 110/153/279 109/154/280
f 109/154/281 110/153/282 112/155/283 111/156/284
f 111/156/285 112/155/286 106/157/287 105/158/288
f 106/150/289 112/159/290 110/160/291 108/151/292
f 111/161/293 105/149/294 107/152/295 109/162/296
f 113/163/297 114/164/298 116/165/299 115/166/300
f 115/166/301 116/165/302 118/167/303 117/168/304
f 117/168/305 118/167/306 120/169/307 119/170/308
f 119/170/309 120/169/310 114/171/311 113/172/312
f 114/164/313 120/173/314 118/174/315 116/165/316
f 119/175/317 113/163/318 115/166/319 117/176/320
f 121/177/321 122/178/322 124/179/323 123/180/324
f 123/180/325 124/179/326 126/181/327 125/182/328
f 125/182/329 126/181/330 128/183/331 127/184/332
f 127/184/333 128/183/334 122/185/335 121/186/336
f 122/178/337 128/187/338 126/188/339 124/179/340
f 127/189/341 121/177/342 123/180/343 125/190/344
f 129/191/345 130/192/346 132/193/347 131/194/348
f 131/194/349 132/193/350 134/195/351 133/196/352
f 133/196/353 134/195/354 136/197/355 135/198/356
f 135/198/357 136/197/358 130/199/359 129/200/360
f 130/192/361 136/201/362 134/202/363 132/193/364
f 135/203/365 129/191/366 131/194/367 133/204/368
